<mxfile host="app.diagrams.net" modified="2024-06-28T07:08:35.044Z" agent="Mozilla/5.0 (Windows NT 10.0; Win64; x64) AppleWebKit/537.36 (KHTML, like Gecko) Chrome/126.0.0.0 Safari/537.36 Edg/126.0.0.0" version="24.6.4" etag="dJ6LFCvWi9l0AcK1SZLF" type="github">
  <diagram name="第 1 页" id="qgJlCf7dbx8LFe6jDjku">
    <mxGraphModel>
      <root>
        <mxCell id="0" />
        <mxCell id="1" parent="0" />
      </root>
    </mxGraphModel>
  </diagram>
</mxfile>
